# xmcd
#
# Track frame offsets:
# 150
# 16552
# 30400
# 45830
# 62930
# 78872
# 94340
# 110122
# 125250
# 137930
# 153137
# 167057
# 182807
# 196840
#
# Disc length: 2813 seconds
#
#
# Revision: 0
# Processed by: cddbd v1.5.2PL0 Copyright (c) Steve Scherf et al.
# Submitted via: FreeRIP 2.951 
#
DISCID=a90afb0e
DTITLE=André e Adriano - Sacramentado
DYEAR=2006
DGENRE=Sertanejo
TTITLE0=Sacramentado
TTITLE1=Vem me Namorar
TTITLE2=Motivos pra Voltar
TTITLE3=Perdoa
TTITLE4=Vai
TTITLE5=Rapadura
TTITLE6=Amaremos
TTITLE7=Escreveu não leu o pau comeu
TTITLE8=Judieira
TTITLE9=Vai ser Assim
TTITLE10=Roubando a Cena
TTITLE11=Te Pego as Dez
TTITLE12=Swingueira
TTITLE13=Camisa Branca
EXTD=
EXTT0=
EXTT1=
EXTT2=
EXTT3=
EXTT4=
EXTT5=
EXTT6=
EXTT7=
EXTT8=
EXTT9=
EXTT10=
EXTT11=
EXTT12=
EXTT13=
PLAYORDER=
